<svg width="205" height="65" viewBox="0 0 205 65" fill="none" xmlns="http://www.w3.org/2000/svg">
<g clip-path="url(#clip0)">
<path d="M36.7102 4.82195C37.3626 4.30118 38.3312 4.47477 38.7662 5.18842L56.3997 34.1395C56.7555 34.7181 56.6172 35.4703 56.0834 35.8754L48.1167 42.1246C47.4643 42.6454 46.4957 42.4718 46.0608 41.7581L28.4074 12.8264C28.0516 12.2478 28.19 11.4955 28.7237 11.0905L36.7102 4.82195Z" fill="#2A4BA1"/>
<path d="M55.2334 33.4451H20.5C20.2035 33.4451 19.9267 33.5416 19.7093 33.6959L11.5053 37.8813C11.1692 38.0549 10.8925 38.3057 10.7146 38.5757C10.6948 38.5757 10.675 38.5757 10.6553 38.5757H0.948891C0.434908 38.5757 0 38.9807 0 39.4629V39.9066C0 40.408 0.41514 40.7938 0.948891 40.7938H10.6553C10.6948 40.7938 10.7343 40.7938 10.7739 40.7938C10.9518 41.0252 11.189 41.2374 11.4855 41.3917L19.7093 45.6543H19.729C19.9465 45.8086 20.2232 45.9051 20.5198 45.9051H20.7372H52.1297C52.7425 45.9051 53.2763 45.5193 53.4542 44.96L56.5776 35.181C56.8346 34.3324 56.1823 33.4451 55.2334 33.4451Z" fill="#3B69DE"/>
<path d="M30.6413 1.19584C30.7994 0.597916 31.3529 0.192871 31.9855 0.192871H65.2165C66.1456 0.192871 66.8177 1.06082 66.541 1.92878L63.378 12.0163C63.2001 12.5757 62.6663 12.9807 62.0535 12.9807H29.2772C28.3679 12.9807 27.7155 12.1513 27.933 11.2834L30.6413 1.19584Z" fill="#3B69DE"/>
<path d="M80.8732 0.192871C81.5256 0.192871 82.0791 0.636491 82.2175 1.23441L92.3983 44.4777C92.5959 45.3264 91.9436 46.1365 91.054 46.1365L80.2604 46.1558C79.608 46.1558 79.0545 45.7314 78.9161 45.1142L68.6958 1.85162C68.4981 1.00296 69.1504 0.192871 70.04 0.192871H80.8732Z" fill="#2A4BA1"/>
<path d="M70.0203 0.115723C69.4074 0.115723 68.8539 0.520767 68.6958 1.0994L55.866 44.4392C55.609 45.3071 56.2811 46.1558 57.1905 46.1558L67.9446 46.1751C68.5574 46.1751 69.1109 45.77 69.269 45.2107L82.1582 1.85163C82.4151 0.983675 81.743 0.115723 80.8337 0.115723H70.0203Z" fill="#3B69DE"/>
<path d="M93.1297 0.115723C92.5169 0.115723 91.9634 0.520767 91.8052 1.0994L78.9754 44.4392C78.7184 45.3071 79.3906 46.1558 80.2999 46.1558L91.054 46.1751C91.6668 46.1751 92.2204 45.77 92.3785 45.2107L105.248 1.85163C105.505 0.983675 104.833 0.115723 103.923 0.115723H93.1297Z" fill="#3B69DE"/>
<path d="M140.278 0.13501H129.543C129.188 0.13501 128.871 0.270025 128.614 0.482191L101.887 24.4763C101.136 25.1513 101.373 26.3665 102.322 26.7329L110.566 29.9154C111.06 30.1083 111.633 29.9926 112.028 29.6454L114.737 27.1187L120.707 45.3071C120.885 45.8665 121.419 46.2522 122.031 46.2522H129.464C130.393 46.2522 131.066 45.365 130.789 44.497L122.802 19.9629C122.783 19.8858 122.743 19.8086 122.703 19.7315L141.246 2.46884C142.136 1.62017 141.523 0.13501 140.278 0.13501Z" fill="#2A4BA1"/>
<path d="M109.933 0.115723C109.32 0.115723 108.767 0.520767 108.608 1.0994L95.7787 44.4392C95.5217 45.3071 96.1938 46.1558 97.1032 46.1558L107.857 46.1751C108.47 46.1751 109.024 45.77 109.182 45.2107L122.051 1.85163C122.308 0.983675 121.636 0.115723 120.727 0.115723H109.933Z" fill="#3B69DE"/>
<path fill-rule="evenodd" clip-rule="evenodd" d="M151.625 0.192871H161.707C170.108 0.192871 176.929 6.84717 176.929 15.0445C176.929 23.2418 170.108 29.8961 161.707 29.8961H146.88V21.4095H161.707C165.305 21.4095 168.23 18.5549 168.23 15.0445C168.23 11.5341 165.305 8.67952 161.707 8.67952H151.625V0.192871Z" fill="#2A4BA1"/>
<path d="M201.995 39.3279H192.289C192.249 39.3279 192.21 39.3279 192.17 39.3279C191.992 39.0964 191.755 38.8843 191.459 38.73L183.255 34.5831C182.82 34.3516 182.325 34.2938 181.871 34.3709V34.3323C181.554 34.3323 181.218 34.3323 180.902 34.3323C176.059 34.3516 172.58 34.3709 168.665 30.5519C162.952 24.9777 158.168 22.1039 153.048 21.3323L158.84 1.85163C159.097 0.983675 158.425 0.115723 157.516 0.115723H146.722C146.109 0.115723 145.556 0.520767 145.398 1.0994L132.568 44.4392C132.311 45.3071 132.983 46.1558 133.892 46.1558L144.647 46.1751C145.259 46.1751 145.813 45.77 145.971 45.2107L149.589 33.0401L149.608 33.4451C151.19 33.3679 153.562 33.2522 159.73 39.27C166.946 46.3101 174.359 46.6766 179.993 46.6766C180.329 46.6766 180.665 46.6766 180.981 46.6766C181.297 46.6766 181.594 46.6766 181.91 46.6766V46.6573C182.365 46.7344 182.839 46.6573 183.274 46.4451L191.498 42.2403C191.834 42.0668 192.111 41.816 192.289 41.546C192.309 41.546 192.328 41.546 192.348 41.546H202.054C202.568 41.546 203.003 41.1409 203.003 40.6587V40.2151C202.944 39.7136 202.529 39.3279 201.995 39.3279Z" fill="#3B69DE"/>
<path d="M73.7565 61.586H72.4716V64.9035H71.6808V61.586H70.3761V60.8338H73.7565V61.586Z" fill="#3B69DE"/>
<path d="M88.6818 64.9035L87.891 63.3412H87.4759V64.9035H86.6654V60.8338H88.2666C88.662 60.8338 88.9783 60.9495 89.2155 61.181C89.4527 61.4124 89.5714 61.721 89.5714 62.0682C89.5714 62.3575 89.4923 62.589 89.3341 62.8012C89.176 63.0133 88.9783 63.1483 88.7015 63.2255L89.5714 64.8842H88.6818V64.9035ZM87.4759 62.6661H88.1282C88.3259 62.6661 88.4841 62.6083 88.6027 62.5118C88.7213 62.4154 88.7806 62.2804 88.7806 62.1068C88.7806 61.9332 88.7213 61.7982 88.6027 61.7018C88.4841 61.6053 88.3259 61.5475 88.1282 61.5475H87.4759V62.6661Z" fill="#3B69DE"/>
<path d="M104.141 65C103.686 65 103.311 64.865 103.014 64.5949C102.717 64.3249 102.579 63.9391 102.579 63.457V60.8338H103.37V63.3991C103.37 63.6691 103.429 63.862 103.568 64.0163C103.706 64.1513 103.904 64.2285 104.141 64.2285C104.378 64.2285 104.576 64.1513 104.714 64.0163C104.852 63.8813 104.912 63.6691 104.912 63.3991V60.8338H105.703V63.457C105.703 63.9391 105.564 64.3056 105.268 64.5949C104.971 64.865 104.595 65 104.141 65Z" fill="#3B69DE"/>
<path d="M121.715 61.8175L121.003 62.0297C120.984 61.8754 120.905 61.7597 120.786 61.6247C120.667 61.5089 120.489 61.4511 120.252 61.4511C120.054 61.4511 119.916 61.5089 119.797 61.6054C119.679 61.7018 119.62 61.8175 119.62 61.9718C119.62 62.2226 119.758 62.3769 120.054 62.4348L120.628 62.5505C120.984 62.6276 121.26 62.7626 121.478 62.9748C121.676 63.187 121.774 63.457 121.774 63.7463C121.774 64.0742 121.636 64.3828 121.379 64.6336C121.122 64.8843 120.766 65 120.311 65C120.054 65 119.817 64.9615 119.62 64.8843C119.422 64.8072 119.244 64.7107 119.125 64.5757C119.007 64.4407 118.908 64.3057 118.829 64.1707C118.77 64.0164 118.71 63.8813 118.71 63.727L119.442 63.5342C119.461 63.7463 119.54 63.9392 119.699 64.0742C119.857 64.2285 120.074 64.2864 120.331 64.2864C120.529 64.2864 120.707 64.2478 120.806 64.1514C120.924 64.0549 120.984 63.9392 120.984 63.7849C120.984 63.6692 120.944 63.5727 120.845 63.4763C120.766 63.3799 120.648 63.322 120.489 63.3027L119.916 63.187C119.58 63.1098 119.323 62.9748 119.125 62.7819C118.928 62.5891 118.829 62.319 118.829 62.0297C118.829 61.6632 118.967 61.3739 119.244 61.1232C119.521 60.8724 119.857 60.7567 120.252 60.7567C120.489 60.7567 120.687 60.7953 120.885 60.8532C121.063 60.911 121.221 61.0075 121.32 61.1232C121.438 61.2389 121.517 61.3353 121.577 61.4511C121.636 61.5668 121.676 61.6825 121.715 61.8175Z" fill="#3B69DE"/>
<path d="M137.787 61.586H136.502V64.9035H135.711V61.586H134.426V60.8338H137.787V61.586Z" fill="#3B69DE"/>
</g>
<defs>
<clipPath id="clip0">
<rect width="205" height="65" fill="white"/>
</clipPath>
</defs>
</svg>
